# AST/ASF file generated using VICON BodyLanguage
# -----------------------------------------------
:version 1.10
:name VICON
:units
  mass 1.0
  length 0.45
  angle deg
:documentation
   .ast/.asf automatically generated from VICON data using
   VICON BodyBuilder and BodyLanguage model FoxedUp or BRILLIANT.MOD
:root
   order TX TY TZ RX RY RZ
   axis XYZ
   position 0 0 0  
   orientation 0 -0 0 
:bonedata
  begin
     id 1 
     name lhipjoint
     direction 0.500677 -0.737119 0.453848 
     length 2.34727 
     axis 0 -0 0  XYZ
  end
  begin
     id 2 
     name lfemur
     direction 0.34202 -0.939693 0  
     length 7.53653  
     axis 0 -0 20  XYZ
    dof rx ry rz
    limits (-160.0 20.0)
           (-70.0 70.0)
           (-60.0 70.0)
  end
  begin
     id 3 
     name ltibia
     direction 0.34202 -0.939693 0   
     length 6.85572   
     axis 0 -0 20   XYZ
    dof rx
    limits (-10.0 170.0)
  end
  begin
     id 4 
     name lfoot
     direction 0.155313 -0.426718 0.890949   
     length 2.18324   
     axis -90 -1.13533e-015 20   XYZ
    dof rx rz
    limits (-45.0 90.0)
           (-70.0 20.0)
  end
  begin
     id 5 
     name ltoes
     direction 1.53474e-011 -4.21647e-011 1   
     length 1.06748   
     axis -90 -1.13533e-015 20   XYZ
    dof rx
    limits (-90.0 20.0)
  end
  begin
     id 6 
     name rhipjoint
     direction -0.632471 -0.659587 0.406111   
     length 2.62319  
     axis 0 -0 0  XYZ 
  end
  begin
     id 7 
     name rfemur
     direction -0.34202 -0.939693 0   
     length 7.21735   
     axis 0 -0 -20   XYZ
    dof rx ry rz
    limits (-160.0 20.0)
           (-70.0 70.0)
           (-70.0 60.0)
  end
  begin
     id 8 
     name rtibia
     direction -0.34202 -0.939693 0   
     length 7.02558   
     axis 0 -0 -20   XYZ
    dof rx
    limits (-10.0 170.0)
 end
 begin
     id 9 
     name rfoot
     direction -0.16057 -0.441164 0.882945   
     length 2.10014  
     axis -90 1.13533e-015 -20   XYZ
    dof rx rz
    limits (-45.0 90.0)
           (-20.0 70.0)
  end
  begin
     id 10 
     name rtoes
     direction -1.53553e-011 -4.2192e-011 1   
     length 1.02554   
     axis -90 1.13533e-015 -20   XYZ
    dof rx
    limits (-90.0 20.0)
  end
  begin
     id 11 
     name lowerback
     direction 0.0401429 0.998861 -0.0258085   
     length 1.80848   
     axis 0 -0 0   XYZ
    dof rx ry rz
    limits (-20.0 45.0)
           (-30.0 30.0)
           (-30.0 30.0)
  end
  begin
     id 12 
     name upperback
     direction -0.0130978 0.999914 -0.000352645   
     length 1.8116   
     axis 0 -0 0   XYZ
    dof rx ry rz
    limits (-20.0 45.0)
           (-30.0 30.0)
           (-30.0 30.0)
  end
  begin
     id 13 
     name thorax
     direction -0.0300198 0.999453 0.0138573   
     length 1.81778   
     axis 0 -0 0   XYZ
    dof rx ry rz
    limits (-20.0 45.0)
           (-30.0 30.0)
           (-30.0 30.0)
  end
  begin
     id 14 
     name lowerneck
     direction -0.0401726 0.999191 -0.00173647   
     length 2.10594   
     axis 0 -0 0   XYZ
    dof rx ry rz
    limits (-20.0 45.0)
           (-30.0 30.0)
           (-30.0 30.0)
  end
  begin
     id 15 
     name upperneck
     direction 0.0119835 0.998501 0.0534085   
     length 2.07325   
     axis 0 -0 0   XYZ
    dof rx ry rz
    limits (-20.0 45.0)
           (-30.0 30.0)
           (-30.0 30.0)
  end
  begin
     id 16
     name head
     direction 0.00628309 0.999826 0.0175921  
     length 2.15096  
     axis 0 -0 0   XYZ
    dof rx ry rz
    limits (-20.0 45.0)
           (-30.0 30.0)
           (-30.0 30.0)
  end
  begin
     id 17 
     name lclavicle
     direction 0.895501 0.429681 -0.115981  
     length 4.18092  
     axis 0 -0 0   XYZ
    dof ry rz
    limits (-20.0 10.0)
           (0.0 20.0)
  end
  begin
     id 18 
     name lhumerus
     direction 1 -4.48961e-011 -3.38433e-028   
     length 5.77237   
     axis 180 -30 -90   XYZ
    dof rx ry rz
    limits (-60.0 90.0)
           (-90.0 90.0)
           (-90.0 90.0)
  end
  begin
     id 19
     name lradius
     direction 1 -4.4901e-011 1.11983e-026   
     length 2.91878   
     axis 180 -30 -90   XYZ
    dof rx
    limits (-10.0 170.0)
  end
  begin
     id 20
     name lwrist
     direction 1 -4.48934e-011 1.88176e-026   
     length 1.45939   
     axis -1.23311e-014 90 90   XYZ
    dof ry
    limits (-180.0 0.0)
 end
  begin
     id 21 
     name lhand
     direction 1 -4.4895e-011 3.76352e-026   
     length 1.06566   
     axis -2.40147e-014 90 90   XYZ
    dof rx rz
    limits (-90.0 90.0)
           (-45.0 45.0)
  end
  begin
     id 22 
     name lfingers
     direction 1 -4.49005e-011 7.52705e-026   
     length 0.859162   
     axis -4.80295e-014 90 90   XYZ
    dof rx
    limits (0.0 90.0)
  end
  begin
     id 23
     name lthumb
     direction 0.707107 -6.34885e-011 0.707107   
     length 1.23359   
     axis -90 45 -9.86935e-015   XYZ
    dof rx rz
    limits (-45.0 45.0)
           (-45.0 45.0)
  end
  begin
     id 24 
     name rclavicle
     direction -0.91006 0.40451 -0.0903492   
     length 4.23293  
     axis 0 -0 0   XYZ 
    dof ry rz
    limits (-10.0 20.0)
           (-20.0 0.0)
  end
  begin
     id 25 
     name rhumerus
     direction -1 -4.4897e-011 1.7415e-027  
     length 5.49854   
     axis 180 30 90   XYZ
    dof rx ry rz
    limits (-90.0 60.0)
           (-90.0 90.0)
           (-90.0 90.0)
  end
  begin
     id 26 
     name rradius
     direction -1 -4.48963e-011 1.21259e-026   
     length 3.1186   
     axis 180 30 90   XYZ
    dof rx
    limits (-10.0 170.0)
  end
  begin
     id 27 
     name rwrist
     direction -1 -4.48967e-011 1.88176e-026   
     length 1.5593   
     axis -1.23311e-014 -90 -90   XYZ
    dof ry
    limits (-180.0 0.0)
  end
  begin
     id 28
     name rhand
     direction -1 -4.4895e-011 3.76352e-026   
     length 0.71207   
     axis -2.40147e-014 -90 -90   XYZ
    dof rx rz
    limits (-90.0 90.0)
           (-45.0 45.0)
  end
  begin
     id 29
     name rfingers
     direction -1 -4.49005e-011 7.52705e-026   
     length 0.574089   
     axis -4.80295e-014 -90 -90   XYZ
    dof rx
    limits (0.0 90.0)
  end
  begin
     id 30
     name rthumb
     direction -0.707107 -6.34982e-011 0.707107   
     length 0.824281   
     axis -90 -45 9.86935e-015   XYZ
    dof rx rz
    limits (-45.0 45.0)
           (-45.0 45.0)
  end
:hierarchy
  begin
    root lhipjoint rhipjoint lowerback
    lhipjoint lfemur
    lfemur ltibia
    ltibia lfoot
    lfoot ltoes
    rhipjoint rfemur
    rfemur rtibia
    rtibia rfoot
    rfoot rtoes
    lowerback upperback
    upperback thorax
    thorax lowerneck lclavicle rclavicle
    lowerneck upperneck
    upperneck head
    lclavicle lhumerus
    lhumerus lradius
    lradius lwrist
    lwrist lhand lthumb
    lhand lfingers
    rclavicle rhumerus
    rhumerus rradius
    rradius rwrist
    rwrist rhand rthumb
    rhand rfingers
  end

#!OML:ASF C:\ViconDB\ViconDB\414\Spring2016\042216\male.ASF
:FULLY-SPECIFIED
:DEGREES
711
root 31.0637 17.3723 -0.698726 -535.491 34.8163 -177.105
lowerback -1.38667 -3.27006 1.22841
upperback -0.435579 -4.36731 -0.786017
thorax 0.176243 -2.18285 -1.55076
lowerneck 0.796635 -5.90752 -11.6604
upperneck 2.33065 -8.18068 14.3347
head 1.63913 -4.02903 6.08743
rclavicle -2.37175e-013 -2.22639e-014
rhumerus -26.9998 -3.34464 -94.1001
rradius 30.0588
rwrist 25.2952
rhand 7.69354 -22.8859
rfingers 7.12502
rthumb 32.9356 -49.8997
lclavicle -2.37175e-013 -2.22639e-014
lhumerus -40.1225 13.7184 82.0162
lradius 31.7622
lwrist -7.26607
lhand -13.1501 17.5397
lfingers 7.12502
lthumb 12.9485 47.118
rfemur -14.3668 4.54583 24.7072
rtibia 28.455
rfoot -16.5449 13.1367
rtoes -8.17943
lfemur -9.87097 -7.09442 -19.473
ltibia 30.602
lfoot -31.139 28.2854
ltoes -10.7036
712
root 31.0609 17.38 -0.666596 -534.974 35.5937 -176.609
lowerback -1.30091 -3.28427 1.40148
upperback -0.447569 -4.3883 -0.750966
thorax 0.105012 -2.19444 -1.60501
lowerneck 1.07008 -6.3004 -11.7483
upperneck 2.20504 -8.7347 14.7052
head 1.65227 -4.311 6.20335
rclavicle 9.0447e-015 -7.15625e-015
rhumerus -26.9822 -2.63845 -94.6893
rradius 30.2881
rwrist 24.9306
rhand 7.78792 -22.7798
rfingers 7.12502
rthumb 33.0254 -49.7746
lclavicle 9.0447e-015 -7.15625e-015
lhumerus -40.1379 13.6925 81.9449
lradius 31.6147
lwrist -7.47322
lhand -12.9573 17.5323
lfingers 7.12502
lthumb 13.1344 47.0986
rfemur -14.8229 4.40676 25.1033
rtibia 28.3393
rfoot -15.8765 14.4831
rtoes -8.1205
lfemur -10.1589 -7.04851 -18.9839
ltibia 30.6732
lfoot -31.368 28.8359
ltoes -10.2616
713
root 31.0652 17.3826 -0.631426 -534.569 36.1744 -176.156
lowerback -1.19319 -3.38148 1.41371
upperback -0.391465 -4.51797 -0.714401
thorax 0.0993552 -2.25931 -1.57065
lowerneck 1.11701 -6.62515 -11.4631
upperneck 2.19854 -9.17491 14.6776
head 1.68791 -4.52831 6.12868
rclavicle 1.16662e-014 -7.95139e-016
rhumerus -26.8749 -2.1302 -95.2203
rradius 30.4098
rwrist 24.8119
rhand 7.99863 -22.5556
rfingers 7.12502
rthumb 33.2257 -49.5079
lclavicle 1.16662e-014 -7.95139e-016
lhumerus -40.2247 13.7426 81.8169
lradius 31.5942
lwrist -7.80048
lhand -12.6353 17.293
lfingers 7.12502
lthumb 13.4447 46.8391
rfemur -15.1673 4.3951 25.5003
rtibia 28.3
rfoot -15.3239 15.5327
rtoes -7.62141
lfemur -10.2975 -7.21578 -18.5024
ltibia 30.6642
lfoot -31.4941 29.4285
ltoes -10.5944
714
root 31.0616 17.3926 -0.599142 -534.09 36.9354 -175.731
lowerback -0.920507 -3.45405 1.36899
upperback -0.550486 -4.61054 -0.560816
thorax -0.20323 -2.3087 -1.36518
lowerneck 1.4681 -6.86531 -11.5325
upperneck 2.16563 -9.53106 14.7534
head 1.67489 -4.71934 6.16018
rclavicle 1.11816e-014 -1.11319e-014
rhumerus -27.0952 -1.13518 -95.6772
rradius 30.5849
rwrist 24.5504
rhand 7.8902 -22.6187
rfingers 7.12502
rthumb 33.1226 -49.593
lclavicle 1.11816e-014 -1.11319e-014
lhumerus -40.5687 14.0366 81.7645
lradius 31.5923
lwrist -8.17582
lhand -12.5053 17.2003
lfingers 7.12502
lthumb 13.57 46.7381
rfemur -15.686 3.83094 25.8123
rtibia 28.2508
rfoot -14.5179 17.4161
rtoes -7.5503
lfemur -10.4832 -7.57225 -18.1174
ltibia 30.6221
lfoot -31.7253 30.2678
ltoes -10.6709
715
root 31.0563 17.4077 -0.563928 -533.682 37.8461 -175.556
lowerback -0.980245 -3.40511 1.40056
upperback -0.502503 -4.54602 -0.705141
thorax -0.132708 -2.27584 -1.53539
lowerneck 1.5524 -7.18001 -11.3997
upperneck 2.09007 -9.96041 15.0047
head 1.70357 -4.93108 6.19982
rclavicle -6.68662e-014 -1.74931e-014
rhumerus -26.9207 -0.752811 -96.2957
rradius 30.6639
rwrist 24.3976
rhand 7.89414 -22.5172
rfingers 7.12502
rthumb 33.1264 -49.4907
lclavicle -6.68662e-014 -1.74931e-014
lhumerus -40.4178 13.962 81.5894
lradius 31.4548
lwrist -8.48721
lhand -12.1484 17.0097
lfingers 7.12502
lthumb 13.914 46.5242
rfemur -16.3046 3.33345 25.9155
rtibia 28.2526
rfoot -13.9874 19.2553
rtoes -7.83226
lfemur -10.7111 -8.0495 -17.9712
ltibia 30.5259
lfoot -32.0177 31.3396
ltoes -10.3809
716
root 31.0619 17.4216 -0.52873 -532.91 38.702 -174.768
lowerback -1.05351 -3.3558 1.86268
upperback -0.454461 -4.48657 -0.706938
thorax -0.0760325 -2.24671 -1.79942
lowerneck 1.60804 -7.44291 -11.3544
upperneck 2.06902 -10.3247 15.3031
head 1.7517 -5.10885 6.26899
rclavicle 5.08392e-014 -1.82882e-014
rhumerus -26.792 -0.496633 -96.8591
rradius 30.7098
rwrist 24.5779
rhand 8.14604 -22.3495
rfingers 7.12502
rthumb 33.3659 -49.2718
lclavicle 5.08392e-014 -1.82882e-014
lhumerus -40.3403 13.9921 81.2317
lradius 31.345
lwrist -10.0031
lhand -10.8668 16.9784
lfingers 7.12502
lthumb 15.1488 46.404
rfemur -16.8513 3.32663 26.4713
rtibia 28.2331
rfoot -13.4561 20.8905
rtoes -7.82072
lfemur -10.9019 -8.25237 -17.2484
ltibia 30.4258
lfoot -32.2517 32.1595
ltoes -9.61294
717
root 31.0649 17.4318 -0.496162 -532.414 39.59 -174.283
lowerback -1.10687 -3.27034 2.15294
upperback -0.343553 -4.37776 -0.807108
thorax 0.0427157 -2.19091 -2.06983
lowerneck 1.74666 -7.74199 -11.2844
upperneck 1.93741 -10.7341 15.6075
head 1.76026 -5.31436 6.33835
rclavicle -8.67198e-014 -3.97569e-015
rhumerus -26.5394 -0.667179 -97.3324
rradius 30.6464
rwrist 24.9142
rhand 8.2578 -22.2363
rfingers 7.12502
rthumb 33.4721 -49.1357
lclavicle -8.67198e-014 -3.97569e-015
lhumerus -40.1215 13.5337 81.1844
lradius 31.1964
lwrist -10.5207
lhand -10.2726 17.0528
lfingers 7.12502
lthumb 15.7212 46.4343
rfemur -17.2942 3.19682 26.7506
rtibia 28.2534
rfoot -13.2097 22.7303
rtoes -9.34656
lfemur -10.9428 -8.75015 -16.8557
ltibia 30.2904
lfoot -32.6462 33.2193
ltoes -9.79215
718
root 31.0698 17.439 -0.462804 -531.89 40.4977 -173.902
lowerback -0.834408 -3.40068 1.80403
upperback -0.643719 -4.54033 -0.529049
thorax -0.375848 -2.27721 -1.56361
lowerneck 2.16032 -7.69617 -11.483
upperneck 2.08977 -10.7235 15.4695
head 1.73666 -5.32879 6.34426
rclavicle 8.7018e-014 2.38542e-015
rhumerus -26.999 0.19624 -97.6368
rradius 30.6241
rwrist 24.9182
rhand 8.33458 -22.2224
rfingers 7.12502
rthumb 33.5451 -49.106
lclavicle 8.7018e-014 2.38542e-015
lhumerus -40.6395 13.6637 81.378
lradius 31.2022
lwrist -10.3145
lhand -10.5746 17.0279
lfingers 7.12502
lthumb 15.4303 46.4319
rfemur -17.768 3.0947 26.8912
rtibia 28.2753
rfoot -13.0489 24.5824
rtoes -11.1859
lfemur -11.057 -9.16251 -16.5427
ltibia 30.1581
lfoot -33.0669 34.196
ltoes -8.92862
719
root 31.0772 17.4497 -0.436352 -531.509 41.4056 -173.521
lowerback -0.763978 -3.50233 1.63973
upperback -0.706421 -4.67288 -0.386652
thorax -0.459757 -2.34334 -1.32029
lowerneck 2.42512 -7.66513 -11.522
upperneck 2.1278 -10.7072 15.3945
head 1.69905 -5.33314 6.33947
rclavicle -3.10104e-014 -7.95139e-015
rhumerus -27.1507 0.813279 -98.0339
rradius 30.4833
rwrist 25.3465
rhand 8.78949 -21.9867
rfingers 7.12502
rthumb 33.9773 -48.7755
lclavicle -3.10104e-014 -7.95139e-015
lhumerus -40.8148 13.5152 81.6172
lradius 31.0836
lwrist -9.73671
lhand -11.1073 17.0699
lfingers 7.12502
lthumb 14.9171 46.5127
rfemur -18.1469 2.71615 27.0461
rtibia 28.4099
rfoot -12.8929 26.664
rtoes -12.0934
lfemur -10.9103 -9.86389 -16.3065
ltibia 29.9314
lfoot -33.6449 35.4137
ltoes -8.45183
